<svg width="1435" height="216" viewBox="0 0 1435 216" fill="none" xmlns="http://www.w3.org/2000/svg">
<path d="M157.5 13.2C162.7 15.8 165.7 19.9 166.5 25.5C167.5 31.1 166.1 36.2 162.3 40.8C159.7 44.4 156.3 46.4 152.1 46.8C148.1 47.2 144 46.4 139.8 44.4C135 42.2 129.9 40.5 124.5 39.3C119.3 38.1 113.8 37.5 108 37.5C97.2 37.5 87.5 39.2 78.9 42.6C70.5 46 63.3 50.9 57.3 57.3C51.3 63.5 46.7 70.9 43.5 79.5C40.5 88.1 39 97.6 39 108C39 120.2 40.7 130.8 44.1 139.8C47.7 148.8 52.6 156.3 58.8 162.3C65 168.3 72.3 172.8 80.7 175.8C89.1 178.6 98.2 180 108 180C113.4 180 118.8 179.5 124.2 178.5C129.6 177.5 134.8 175.7 139.8 173.1C144 171.1 148.1 170.4 152.1 171C156.3 171.6 159.8 173.7 162.6 177.3C166.6 182.3 168 187.5 166.8 192.9C165.8 198.1 162.8 201.9 157.8 204.3C152.6 206.9 147.2 209.1 141.6 210.9C136.2 212.5 130.7 213.7 125.1 214.5C119.5 215.5 113.8 216 108 216C93.6 216 79.9 213.7 66.9 209.1C54.1 204.5 42.6 197.7 32.4 188.7C22.4 179.7 14.5 168.5 8.7 155.1C2.9 141.5 0 125.8 0 108C0 92.6 2.6 78.4 7.8 65.4C13.2 52.4 20.7 41.2 30.3 31.8C40.1 22.2 51.6 14.8 64.8 9.6C78 4.2 92.4 1.5 108 1.5C116.8 1.5 125.4 2.5 133.8 4.5C142.2 6.49999 150.1 9.4 157.5 13.2Z" fill="url(#paint0_linear_232_2)" fill-opacity="0.08"/>
<path d="M402.286 108C402.286 123 399.786 137 394.786 150C389.786 163 382.686 174.5 373.486 184.5C364.486 194.3 353.686 202 341.086 207.6C328.686 213.2 315.086 216 300.286 216C285.486 216 271.886 213.2 259.486 207.6C247.086 202 236.286 194.3 227.086 184.5C218.086 174.5 211.086 163 206.086 150C201.086 137 198.586 123 198.586 108C198.586 93 201.086 79 206.086 66C211.086 53 218.086 41.6 227.086 31.8C236.286 21.8 247.086 14 259.486 8.4C271.886 2.8 285.486 0 300.286 0C315.086 0 328.686 2.8 341.086 8.4C353.686 14 364.486 21.8 373.486 31.8C382.686 41.6 389.786 53 394.786 66C399.786 79 402.286 93 402.286 108ZM363.286 108C363.286 94.6 360.586 82.5 355.186 71.7C349.786 60.7 342.386 52 332.986 45.6C323.586 39.2 312.686 36 300.286 36C287.886 36 276.986 39.2 267.586 45.6C258.186 52 250.786 60.6 245.386 71.4C240.186 82.2 237.586 94.4 237.586 108C237.586 121.4 240.186 133.6 245.386 144.6C250.786 155.4 258.186 164 267.586 170.4C276.986 176.8 287.886 180 300.286 180C312.686 180 323.586 176.8 332.986 170.4C342.386 164 349.786 155.4 355.186 144.6C360.586 133.6 363.286 121.4 363.286 108Z" fill="url(#paint1_linear_232_2)" fill-opacity="0.08"/>
<path d="M606.523 3C611.323 3 615.223 4.6 618.223 7.80001C621.223 11 622.723 15 622.723 19.8V194.7C622.723 199.9 620.923 204.3 617.323 207.9C613.923 211.3 609.623 213 604.423 213C601.823 213 599.123 212.6 596.323 211.8C593.723 210.8 591.723 209.5 590.323 207.9L472.423 58.2L480.223 53.4V196.2C480.223 201 478.623 205 475.423 208.2C472.423 211.4 468.423 213 463.423 213C458.623 213 454.723 211.4 451.723 208.2C448.723 205 447.223 201 447.223 196.2V21.3C447.223 16.1 448.923 11.8 452.323 8.4C455.923 4.8 460.323 3 465.523 3C468.323 3 471.223 3.6 474.223 4.80001C477.223 5.80001 479.423 7.40001 480.823 9.6L595.123 155.4L590.023 159V19.8C590.023 15 591.523 11 594.523 7.80001C597.523 4.6 601.523 3 606.523 3Z" fill="url(#paint2_linear_232_2)" fill-opacity="0.08"/>
<path d="M749.428 213C743.828 213 739.228 211.3 735.628 207.9C732.028 204.3 730.228 199.9 730.228 194.7V20.7H769.228V194.7C769.228 199.9 767.328 204.3 763.528 207.9C759.928 211.3 755.228 213 749.428 213ZM683.128 37.5C677.928 37.5 673.528 35.9 669.928 32.7C666.528 29.5 664.828 25.3 664.828 20.1C664.828 14.9 666.528 10.8 669.928 7.80001C673.528 4.6 677.928 3 683.128 3H816.328C821.528 3 825.828 4.6 829.228 7.80001C832.828 11 834.628 15.2 834.628 20.4C834.628 25.6 832.828 29.8 829.228 33C825.828 36 821.528 37.5 816.328 37.5H683.128Z" fill="url(#paint3_linear_232_2)" fill-opacity="0.08"/>
<path d="M938.78 50.1L873.98 202.5C872.58 206.3 870.38 209.3 867.38 211.5C864.58 213.5 861.48 214.5 858.08 214.5C852.68 214.5 848.68 213 846.08 210C843.48 207 842.18 203.3 842.18 198.9C842.18 197.1 842.48 195.2 843.08 193.2L917.78 13.8C919.38 9.8 921.78 6.7 924.98 4.5C928.38 2.3 931.98 1.4 935.78 1.79999C939.38 1.79999 942.68 2.9 945.68 5.10001C948.88 7.1 951.18 10 952.58 13.8L1026.38 189.6C1027.38 192.2 1027.88 194.6 1027.88 196.8C1027.88 202.2 1026.08 206.5 1022.48 209.7C1019.08 212.9 1015.28 214.5 1011.08 214.5C1007.48 214.5 1004.18 213.4 1001.18 211.2C998.38 209 996.18 206 994.58 202.2L930.08 51.9L938.78 50.1ZM883.28 165.9L899.78 131.4H980.78L986.48 165.9H883.28Z" fill="url(#paint4_linear_232_2)" fill-opacity="0.08"/>
<path d="M1119.94 213C1114.34 213 1109.74 211.3 1106.14 207.9C1102.54 204.3 1100.74 199.9 1100.74 194.7V20.7H1139.74V194.7C1139.74 199.9 1137.84 204.3 1134.04 207.9C1130.44 211.3 1125.74 213 1119.94 213ZM1053.64 37.5C1048.44 37.5 1044.04 35.9 1040.44 32.7C1037.04 29.5 1035.34 25.3 1035.34 20.1C1035.34 14.9 1037.04 10.8 1040.44 7.80001C1044.04 4.6 1048.44 3 1053.64 3H1186.84C1192.04 3 1196.34 4.6 1199.74 7.80001C1203.34 11 1205.14 15.2 1205.14 20.4C1205.14 25.6 1203.34 29.8 1199.74 33C1196.34 36 1192.04 37.5 1186.84 37.5H1053.64Z" fill="url(#paint5_linear_232_2)" fill-opacity="0.08"/>
<path d="M1434.47 108C1434.47 123 1431.97 137 1426.97 150C1421.97 163 1414.87 174.5 1405.67 184.5C1396.67 194.3 1385.87 202 1373.27 207.6C1360.87 213.2 1347.27 216 1332.47 216C1317.67 216 1304.07 213.2 1291.67 207.6C1279.27 202 1268.47 194.3 1259.27 184.5C1250.27 174.5 1243.27 163 1238.27 150C1233.27 137 1230.77 123 1230.77 108C1230.77 93 1233.27 79 1238.27 66C1243.27 53 1250.27 41.6 1259.27 31.8C1268.47 21.8 1279.27 14 1291.67 8.4C1304.07 2.8 1317.67 0 1332.47 0C1347.27 0 1360.87 2.8 1373.27 8.4C1385.87 14 1396.67 21.8 1405.67 31.8C1414.87 41.6 1421.97 53 1426.97 66C1431.97 79 1434.47 93 1434.47 108ZM1395.47 108C1395.47 94.6 1392.77 82.5 1387.37 71.7C1381.97 60.7 1374.57 52 1365.17 45.6C1355.77 39.2 1344.87 36 1332.47 36C1320.07 36 1309.17 39.2 1299.77 45.6C1290.37 52 1282.97 60.6 1277.57 71.4C1272.37 82.2 1269.77 94.4 1269.77 108C1269.77 121.4 1272.37 133.6 1277.57 144.6C1282.97 155.4 1290.37 164 1299.77 170.4C1309.17 176.8 1320.07 180 1332.47 180C1344.87 180 1355.77 176.8 1365.17 170.4C1374.57 164 1381.97 155.4 1387.37 144.6C1392.77 133.6 1395.47 121.4 1395.47 108Z" fill="url(#paint6_linear_232_2)" fill-opacity="0.08"/>
<defs>
<linearGradient id="paint0_linear_232_2" x1="717.5" y1="-87" x2="717.5" y2="288" gradientUnits="userSpaceOnUse">
<stop stop-color="#E8FFF7"/>
<stop offset="1" stop-color="#E8FFF7" stop-opacity="0.2"/>
</linearGradient>
<linearGradient id="paint1_linear_232_2" x1="717.5" y1="-87" x2="717.5" y2="288" gradientUnits="userSpaceOnUse">
<stop stop-color="#E8FFF7"/>
<stop offset="1" stop-color="#E8FFF7" stop-opacity="0.2"/>
</linearGradient>
<linearGradient id="paint2_linear_232_2" x1="717.5" y1="-87" x2="717.5" y2="288" gradientUnits="userSpaceOnUse">
<stop stop-color="#E8FFF7"/>
<stop offset="1" stop-color="#E8FFF7" stop-opacity="0.2"/>
</linearGradient>
<linearGradient id="paint3_linear_232_2" x1="717.5" y1="-87" x2="717.5" y2="288" gradientUnits="userSpaceOnUse">
<stop stop-color="#E8FFF7"/>
<stop offset="1" stop-color="#E8FFF7" stop-opacity="0.2"/>
</linearGradient>
<linearGradient id="paint4_linear_232_2" x1="717.5" y1="-87" x2="717.5" y2="288" gradientUnits="userSpaceOnUse">
<stop stop-color="#E8FFF7"/>
<stop offset="1" stop-color="#E8FFF7" stop-opacity="0.2"/>
</linearGradient>
<linearGradient id="paint5_linear_232_2" x1="717.5" y1="-87" x2="717.5" y2="288" gradientUnits="userSpaceOnUse">
<stop stop-color="#E8FFF7"/>
<stop offset="1" stop-color="#E8FFF7" stop-opacity="0.2"/>
</linearGradient>
<linearGradient id="paint6_linear_232_2" x1="717.5" y1="-87" x2="717.5" y2="288" gradientUnits="userSpaceOnUse">
<stop stop-color="#E8FFF7"/>
<stop offset="1" stop-color="#E8FFF7" stop-opacity="0.2"/>
</linearGradient>
</defs>
</svg>
