<svg width="697" height="964" viewBox="0 0 697 964" fill="none" xmlns="http://www.w3.org/2000/svg">
<path d="M28.8 0.999964H129.3C134.5 0.999964 138.8 2.69997 142.2 6.09997C145.8 9.29996 147.6 13.5 147.6 18.7C147.6 23.7 145.8 27.8 142.2 31C138.8 34 134.5 35.5 129.3 35.5H45.3L48 30.4V88.9L45.6 86.5H115.8C121 86.5 125.3 88.2 128.7 91.6C132.3 94.8 134.1 99 134.1 104.2C134.1 109.2 132.3 113.3 128.7 116.5C125.3 119.5 121 121 115.8 121H46.5L48 118.6V179.2L45.6 176.5H129.3C134.5 176.5 138.8 178.3 142.2 181.9C145.8 185.3 147.6 189.3 147.6 193.9C147.6 198.9 145.8 203 142.2 206.2C138.8 209.4 134.5 211 129.3 211H28.8C23.6 211 19.2 209.3 15.6 205.9C12.2 202.3 10.5 197.9 10.5 192.7V19.3C10.5 14.1 12.2 9.79997 15.6 6.39997C19.2 2.79996 23.6 0.999964 28.8 0.999964Z" fill="#DFFFF4" fill-opacity="0.08"/>
<path d="M325.88 0.699968C330.48 0.699968 334.38 2.49997 337.58 6.09997C340.98 9.69997 342.68 13.5 342.68 17.5C342.68 21.3 341.38 24.9 338.78 28.3L278.48 107.8L258.08 79.9L311.18 9.39996C315.38 3.59997 320.28 0.699968 325.88 0.699968ZM192.08 0.0999756C197.88 0.0999756 202.78 2.69997 206.78 7.89996L338.78 183.4C341.18 186.6 342.38 190.3 342.38 194.5C342.38 200.1 340.38 204.5 336.38 207.7C332.38 210.9 328.38 212.5 324.38 212.5C318.58 212.5 313.68 209.9 309.68 204.7L177.68 29.2C175.08 26 173.78 22.4 173.78 18.4C173.78 13.2 175.68 8.89996 179.48 5.49996C183.48 1.89997 187.68 0.0999756 192.08 0.0999756ZM189.38 212.5C184.98 212.5 181.18 210.9 177.98 207.7C174.78 204.3 173.18 200.6 173.18 196.6C173.18 192.2 174.68 188.1 177.68 184.3L238.58 101.8L258.38 130.9L204.38 204.1C200.38 209.7 195.38 212.5 189.38 212.5Z" fill="#DFFFF4" fill-opacity="0.08"/>
<path d="M465.462 0.999964C475.862 0.999964 485.562 3.99997 494.562 9.99997C503.762 16 511.162 24.1 516.762 34.3C522.362 44.5 525.162 55.9 525.162 68.5C525.162 80.9 522.362 92.2 516.762 102.4C511.162 112.6 503.762 120.8 494.562 127C485.562 133 475.862 136 465.462 136H410.262L413.262 130.6V192.7C413.262 197.9 411.662 202.3 408.462 205.9C405.262 209.3 401.062 211 395.862 211C390.862 211 386.762 209.3 383.562 205.9C380.362 202.3 378.762 197.9 378.762 192.7V19.3C378.762 14.1 380.462 9.79997 383.862 6.39997C387.462 2.79996 391.862 0.999964 397.062 0.999964H465.462ZM465.462 101.8C469.262 101.8 472.962 100.2 476.562 97C480.162 93.8 483.162 89.7 485.562 84.7C487.962 79.5 489.162 74.1 489.162 68.5C489.162 62.7 487.962 57.3 485.562 52.3C483.162 47.3 480.162 43.3 476.562 40.3C472.962 37.1 469.262 35.5 465.462 35.5H409.662L413.262 30.1V106.6L409.962 101.8H465.462Z" fill="#DFFFF4" fill-opacity="0.08"/>
<path d="M577.823 0.999964H678.323C683.523 0.999964 687.823 2.69997 691.223 6.09997C694.823 9.29996 696.623 13.5 696.623 18.7C696.623 23.7 694.823 27.8 691.223 31C687.823 34 683.523 35.5 678.323 35.5H594.323L597.023 30.4V88.9L594.623 86.5H664.823C670.023 86.5 674.323 88.2 677.723 91.6C681.323 94.8 683.123 99 683.123 104.2C683.123 109.2 681.323 113.3 677.723 116.5C674.323 119.5 670.023 121 664.823 121H595.523L597.023 118.6V179.2L594.623 176.5H678.323C683.523 176.5 687.823 178.3 691.223 181.9C694.823 185.3 696.623 189.3 696.623 193.9C696.623 198.9 694.823 203 691.223 206.2C687.823 209.4 683.523 211 678.323 211H577.823C572.623 211 568.223 209.3 564.623 205.9C561.223 202.3 559.523 197.9 559.523 192.7V19.3C559.523 14.1 561.223 9.79997 564.623 6.39997C568.223 2.79996 572.623 0.999964 577.823 0.999964Z" fill="#DFFFF4" fill-opacity="0.08"/>
<path d="M32.1 586C26.5 586 21.5 584.3 17.1 580.9C12.7 577.3 10.5 572.9 10.5 567.7V394.3C10.5 389.1 12.2 384.8 15.6 381.4C19.2 377.8 23.6 376 28.8 376H115.2C125.6 376 135.3 378.8 144.3 384.4C153.5 389.8 160.9 397.4 166.5 407.2C172.1 416.8 174.9 427.9 174.9 440.5C174.9 448.1 173.3 455.5 170.1 462.7C167.1 469.9 162.9 476.4 157.5 482.2C152.3 488 146.4 492.5 139.8 495.7L140.1 488.8C145.7 491.8 150.3 495.4 153.9 499.6C157.7 503.6 160.6 508 162.6 512.8C164.8 517.4 166.1 522.4 166.5 527.8C167.3 532.8 167.8 537.2 168 541C168.4 544.8 169 548 169.8 550.6C170.8 553.2 172.6 555.2 175.2 556.6C179.6 559.2 182.3 563 183.3 568C184.5 572.8 183.4 577.1 180 580.9C177.8 583.5 175 585.2 171.6 586C168.2 586.6 164.8 586.6 161.4 586C158 585.2 155.2 584.2 153 583C149.6 581 146.2 578.1 142.8 574.3C139.4 570.3 136.6 565 134.4 558.4C132.4 551.8 131.4 543.3 131.4 532.9C131.4 529.5 130.8 526.4 129.6 523.6C128.4 520.6 126.7 518.1 124.5 516.1C122.3 513.9 119.5 512.3 116.1 511.3C112.7 510.1 108.7 509.5 104.1 509.5H43.5L48 502.6V567.7C48 572.9 46.6 577.3 43.8 580.9C41 584.3 37.1 586 32.1 586ZM43.8 478.6H113.7C117.3 478.6 120.8 477 124.2 473.8C127.6 470.4 130.4 465.9 132.6 460.3C134.8 454.5 135.9 448.2 135.9 441.4C135.9 432.6 133.5 425.3 128.7 419.5C124.1 413.5 119.1 410.5 113.7 410.5H44.4L48 400.9V485.8L43.8 478.6Z" fill="#DFFFF4" fill-opacity="0.08"/>
<path d="M253.957 567.7C253.957 572.9 252.057 577.3 248.257 580.9C244.457 584.3 240.057 586 235.057 586C229.457 586 224.957 584.3 221.557 580.9C218.157 577.3 216.457 572.9 216.457 567.7V394.3C216.457 389.1 218.257 384.8 221.857 381.4C225.457 377.8 230.057 376 235.657 376C240.457 376 244.657 377.8 248.257 381.4C252.057 384.8 253.957 389.1 253.957 394.3V567.7Z" fill="#DFFFF4" fill-opacity="0.08"/>
<path d="M317.374 376H417.874C423.074 376 427.374 377.7 430.774 381.1C434.374 384.3 436.174 388.5 436.174 393.7C436.174 398.7 434.374 402.8 430.774 406C427.374 409 423.074 410.5 417.874 410.5H333.874L336.574 405.4V463.9L334.174 461.5H404.374C409.574 461.5 413.874 463.2 417.274 466.6C420.874 469.8 422.674 474 422.674 479.2C422.674 484.2 420.874 488.3 417.274 491.5C413.874 494.5 409.574 496 404.374 496H335.074L336.574 493.6V554.2L334.174 551.5H417.874C423.074 551.5 427.374 553.3 430.774 556.9C434.374 560.3 436.174 564.3 436.174 568.9C436.174 573.9 434.374 578 430.774 581.2C427.374 584.4 423.074 586 417.874 586H317.374C312.174 586 307.774 584.3 304.174 580.9C300.774 577.3 299.074 572.9 299.074 567.7V394.3C299.074 389.1 300.774 384.8 304.174 381.4C307.774 377.8 312.174 376 317.374 376ZM373.774 342.7L348.574 357.4C345.174 359.4 342.274 361 339.874 362.2C337.474 363.4 335.274 364 333.274 364C330.674 364 328.474 363.2 326.674 361.6C324.874 360 323.974 358.3 323.974 356.5C323.974 354.9 324.274 353.5 324.874 352.3C325.474 351.1 326.674 349.5 328.474 347.5L347.374 325.9C349.974 323.1 352.674 321 355.474 319.6C358.274 318 361.674 317.2 365.674 317.2H370.474C374.474 317.2 377.874 318 380.674 319.6C383.474 321 386.174 323.1 388.774 325.9L407.674 347.5C409.474 349.5 410.674 351.1 411.274 352.3C411.874 353.5 412.174 354.9 412.174 356.5C412.174 358.3 411.274 360 409.474 361.6C407.874 363.2 405.674 364 402.874 364C400.874 364 398.674 363.4 396.274 362.2C393.874 361 390.974 359.4 387.574 357.4L362.374 342.7H373.774Z" fill="#DFFFF4" fill-opacity="0.08"/>
<path d="M630.054 376C634.854 376 638.754 377.6 641.754 380.8C644.754 384 646.254 388 646.254 392.8V567.7C646.254 572.9 644.454 577.3 640.854 580.9C637.454 584.3 633.154 586 627.954 586C625.354 586 622.654 585.6 619.854 584.8C617.254 583.8 615.254 582.5 613.854 580.9L495.954 431.2L503.754 426.4V569.2C503.754 574 502.154 578 498.954 581.2C495.954 584.4 491.954 586 486.954 586C482.154 586 478.254 584.4 475.254 581.2C472.254 578 470.754 574 470.754 569.2V394.3C470.754 389.1 472.454 384.8 475.854 381.4C479.454 377.8 483.854 376 489.054 376C491.854 376 494.754 376.6 497.754 377.8C500.754 378.8 502.954 380.4 504.354 382.6L618.654 528.4L613.554 532V392.8C613.554 388 615.054 384 618.054 380.8C621.054 377.6 625.054 376 630.054 376Z" fill="#DFFFF4" fill-opacity="0.08"/>
<path d="M157.5 761.2C162.7 763.8 165.7 767.9 166.5 773.5C167.5 779.1 166.1 784.2 162.3 788.8C159.7 792.4 156.3 794.4 152.1 794.8C148.1 795.2 144 794.4 139.8 792.4C135 790.2 129.9 788.5 124.5 787.3C119.3 786.1 113.8 785.5 108 785.5C97.2 785.5 87.5 787.2 78.9 790.6C70.5 794 63.3 798.9 57.3 805.3C51.3 811.5 46.7 818.9 43.5 827.5C40.5 836.1 39 845.6 39 856C39 868.2 40.7 878.8 44.1 887.8C47.7 896.8 52.6 904.3 58.8 910.3C65 916.3 72.3 920.8 80.7 923.8C89.1 926.6 98.2 928 108 928C113.4 928 118.8 927.5 124.2 926.5C129.6 925.5 134.8 923.7 139.8 921.1C144 919.1 148.1 918.4 152.1 919C156.3 919.6 159.8 921.7 162.6 925.3C166.6 930.3 168 935.5 166.8 940.9C165.8 946.1 162.8 949.9 157.8 952.3C152.6 954.9 147.2 957.1 141.6 958.9C136.2 960.5 130.7 961.7 125.1 962.5C119.5 963.5 113.8 964 108 964C93.6 964 79.9 961.7 66.9 957.1C54.1 952.5 42.6 945.7 32.4 936.7C22.4 927.7 14.5 916.5 8.7 903.1C2.9 889.5 0 873.8 0 856C0 840.6 2.6 826.4 7.8 813.4C13.2 800.4 20.7 789.2 30.3 779.8C40.1 770.2 51.6 762.8 64.8 757.6C78 752.2 92.4 749.5 108 749.5C116.8 749.5 125.4 750.5 133.8 752.5C142.2 754.5 150.1 757.4 157.5 761.2Z" fill="#DFFFF4" fill-opacity="0.08"/>
<path d="M236.086 942.7C236.086 947.9 234.186 952.3 230.386 955.9C226.586 959.3 222.186 961 217.186 961C211.586 961 207.086 959.3 203.686 955.9C200.286 952.3 198.586 947.9 198.586 942.7V769.3C198.586 764.1 200.386 759.8 203.986 756.4C207.586 752.8 212.186 751 217.786 751C222.586 751 226.786 752.8 230.386 756.4C234.186 759.8 236.086 764.1 236.086 769.3V942.7Z" fill="#DFFFF4" fill-opacity="0.08"/>
<path d="M358.303 798.1L293.503 950.5C292.103 954.3 289.903 957.3 286.903 959.5C284.103 961.5 281.003 962.5 277.603 962.5C272.203 962.5 268.203 961 265.603 958C263.003 955 261.703 951.3 261.703 946.9C261.703 945.1 262.003 943.2 262.603 941.2L337.303 761.8C338.903 757.8 341.303 754.7 344.503 752.5C347.903 750.3 351.503 749.4 355.303 749.8C358.903 749.8 362.203 750.9 365.203 753.1C368.403 755.1 370.703 758 372.103 761.8L445.903 937.6C446.903 940.2 447.403 942.6 447.403 944.8C447.403 950.2 445.603 954.5 442.003 957.7C438.603 960.9 434.803 962.5 430.603 962.5C427.003 962.5 423.703 961.4 420.703 959.2C417.903 957 415.703 954 414.103 950.2L349.603 799.9L358.303 798.1ZM302.803 913.9L319.303 879.4H400.303L406.003 913.9H302.803Z" fill="#DFFFF4" fill-opacity="0.08"/>
</svg>
