<svg width="30" height="30" viewBox="0 0 30 30" fill="none" xmlns="http://www.w3.org/2000/svg">
<mask id="mask0_18_54" style="mask-type:alpha" maskUnits="userSpaceOnUse" x="0" y="0" width="30" height="30">
<rect width="30" height="30" fill="#8D99FF"/>
</mask>
<g mask="url(#mask0_18_54)">
<path d="M15 25C14 24.2083 12.9167 23.5938 11.75 23.1562C10.5833 22.7188 9.375 22.5 8.125 22.5C7.25 22.5 6.39062 22.6146 5.54688 22.8438C4.70312 23.0729 3.89583 23.3958 3.125 23.8125C2.6875 24.0417 2.26562 24.0312 1.85938 23.7812C1.45312 23.5312 1.25 23.1667 1.25 22.6875V7.625C1.25 7.39583 1.30729 7.17708 1.42188 6.96875C1.53646 6.76042 1.70833 6.60417 1.9375 6.5C2.89583 6 3.89583 5.625 4.9375 5.375C5.97917 5.125 7.04167 5 8.125 5C9.33333 5 10.5156 5.15625 11.6719 5.46875C12.8281 5.78125 13.9375 6.25 15 6.875V22C16.0625 21.3333 17.1771 20.8333 18.3438 20.5C19.5104 20.1667 20.6875 20 21.875 20C22.625 20 23.3594 20.0625 24.0781 20.1875C24.7969 20.3125 25.5208 20.5 26.25 20.75V5.75C26.5625 5.85417 26.8698 5.96354 27.1719 6.07812C27.474 6.19271 27.7708 6.33333 28.0625 6.5C28.2917 6.60417 28.4635 6.76042 28.5781 6.96875C28.6927 7.17708 28.75 7.39583 28.75 7.625V22.6875C28.75 23.1667 28.5469 23.5312 28.1406 23.7812C27.7344 24.0312 27.3125 24.0417 26.875 23.8125C26.1042 23.3958 25.2969 23.0729 24.4531 22.8438C23.6094 22.6146 22.75 22.5 21.875 22.5C20.625 22.5 19.4167 22.7188 18.25 23.1562C17.0833 23.5938 16 24.2083 15 25ZM17.5 18.75V6.875L23.75 0.625V13.125L17.5 18.75ZM12.5 20.7812V8.40625C11.8125 8.11458 11.099 7.89062 10.3594 7.73438C9.61979 7.57812 8.875 7.5 8.125 7.5C7.35417 7.5 6.60417 7.57292 5.875 7.71875C5.14583 7.86458 4.4375 8.08333 3.75 8.375V20.7812C4.47917 20.5104 5.20312 20.3125 5.92188 20.1875C6.64062 20.0625 7.375 20 8.125 20C8.875 20 9.60938 20.0625 10.3281 20.1875C11.0469 20.3125 11.7708 20.5104 12.5 20.7812Z" fill="#8D99FF"/>
</g>
</svg>
