<svg width="24" height="19" viewBox="0 0 24 19" fill="none" xmlns="http://www.w3.org/2000/svg">
<path d="M22.5 0.899658H1.5C1.26794 0.899658 1.04538 0.991846 0.881282 1.15594C0.717187 1.32003 0.625 1.54259 0.625 1.77466V16.6497C0.625 17.1138 0.809374 17.5589 1.13756 17.8871C1.46575 18.2153 1.91087 18.3997 2.375 18.3997H21.625C22.0891 18.3997 22.5342 18.2153 22.8624 17.8871C23.1906 17.5589 23.375 17.1138 23.375 16.6497V1.77466C23.375 1.54259 23.2828 1.32003 23.1187 1.15594C22.9546 0.991846 22.7321 0.899658 22.5 0.899658ZM20.2502 2.64966L12 10.2129L3.74984 2.64966H20.2502ZM21.625 16.6497H2.375V3.76419L11.4083 12.045C11.5697 12.1932 11.7809 12.2754 12 12.2754C12.2191 12.2754 12.4303 12.1932 12.5917 12.045L21.625 3.76419V16.6497Z" fill="#E4F0FB"/>
</svg>
