<svg width="24" height="24" viewBox="0 0 24 24" fill="none" xmlns="http://www.w3.org/2000/svg">
<path d="M22.7839 5.92717C23.0514 5.06442 23.1372 4.15561 23.0359 3.25804C22.9346 2.36048 22.6484 1.49364 22.1955 0.712173C22.1187 0.579127 22.0082 0.46865 21.8751 0.391851C21.7421 0.315052 21.5911 0.274638 21.4375 0.274673C20.4183 0.272539 19.4128 0.508805 18.5012 0.964593C17.5896 1.42038 16.7973 2.08306 16.1875 2.89967H13.5625C12.9527 2.08306 12.1604 1.42038 11.2488 0.964593C10.3372 0.508805 9.33167 0.272539 8.3125 0.274673C8.15887 0.274638 8.00794 0.315052 7.87489 0.391851C7.74183 0.46865 7.63135 0.579127 7.55453 0.712173C7.10155 1.49364 6.8154 2.36048 6.71413 3.25804C6.61285 4.15561 6.69864 5.06442 6.96609 5.92717C6.42548 6.87077 6.13589 7.93724 6.125 9.02467V9.89967C6.12684 11.3802 6.6643 12.81 7.63812 13.9252C8.61194 15.0403 9.95636 15.7655 11.4231 15.9667C10.8244 16.7328 10.4994 17.6774 10.5 18.6497V19.5247H7.875C7.17881 19.5247 6.51113 19.2481 6.01884 18.7558C5.52656 18.2635 5.25 17.5959 5.25 16.8997C5.25 16.3251 5.13684 15.7562 4.91697 15.2254C4.69711 14.6946 4.37485 14.2123 3.96859 13.8061C3.56234 13.3998 3.08004 13.0776 2.54924 12.8577C2.01844 12.6378 1.44953 12.5247 0.875 12.5247C0.642936 12.5247 0.420376 12.6169 0.256282 12.781C0.0921873 12.945 0 13.1676 0 13.3997C0 13.6317 0.0921873 13.8543 0.256282 14.0184C0.420376 14.1825 0.642936 14.2747 0.875 14.2747C1.57119 14.2747 2.23887 14.5512 2.73116 15.0435C3.22344 15.5358 3.5 16.2035 3.5 16.8997C3.5 18.06 3.96094 19.1728 4.78141 19.9933C5.60188 20.8137 6.71468 21.2747 7.875 21.2747H10.5V23.0247C10.5 23.2567 10.5922 23.4793 10.7563 23.6434C10.9204 23.8075 11.1429 23.8997 11.375 23.8997C11.6071 23.8997 11.8296 23.8075 11.9937 23.6434C12.1578 23.4793 12.25 23.2567 12.25 23.0247V18.6497C12.25 17.9535 12.5266 17.2858 13.0188 16.7935C13.5111 16.3012 14.1788 16.0247 14.875 16.0247C15.5712 16.0247 16.2389 16.3012 16.7312 16.7935C17.2234 17.2858 17.5 17.9535 17.5 18.6497V23.0247C17.5 23.2567 17.5922 23.4793 17.7563 23.6434C17.9204 23.8075 18.1429 23.8997 18.375 23.8997C18.6071 23.8997 18.8296 23.8075 18.9937 23.6434C19.1578 23.4793 19.25 23.2567 19.25 23.0247V18.6497C19.2506 17.6774 18.9256 16.7328 18.3269 15.9667C19.7936 15.7655 21.1381 15.0403 22.1119 13.9252C23.0857 12.81 23.6232 11.3802 23.625 9.89967V9.02467C23.6141 7.93724 23.3245 6.87077 22.7839 5.92717ZM21.875 9.89967C21.875 11.06 21.4141 12.1728 20.5936 12.9933C19.7731 13.8137 18.6603 14.2747 17.5 14.2747H12.25C11.0897 14.2747 9.97688 13.8137 9.15641 12.9933C8.33594 12.1728 7.875 11.06 7.875 9.89967V9.02467C7.88573 8.1497 8.14769 7.29624 8.62969 6.56592C8.71954 6.44749 8.77774 6.30812 8.79879 6.16096C8.81984 6.0138 8.80305 5.8637 8.75 5.72483C8.52209 5.13704 8.4124 4.51006 8.42723 3.87981C8.44206 3.24956 8.5811 2.62843 8.83641 2.05202C9.5525 2.12905 10.2421 2.36627 10.854 2.74608C11.466 3.12589 11.9846 3.63856 12.3714 4.24608C12.4502 4.36935 12.5587 4.47088 12.6869 4.54139C12.8151 4.6119 12.959 4.64913 13.1053 4.64967H16.6436C16.7905 4.64968 16.935 4.61271 17.0638 4.54218C17.1926 4.47164 17.3017 4.36982 17.3808 4.24608C17.7676 3.6385 18.2862 3.12579 18.8981 2.74598C19.5101 2.36616 20.1997 2.12897 20.9158 2.05202C21.1707 2.62858 21.3094 3.24978 21.3239 3.88003C21.3383 4.51028 21.2283 5.13719 21 5.72483C20.9471 5.86237 20.9294 6.01095 20.9485 6.15707C20.9676 6.30318 21.0229 6.44222 21.1094 6.56155C21.5962 7.29187 21.862 8.14709 21.875 9.02467V9.89967Z" fill="#E4F0FB"/>
</svg>
