<svg width="24" height="24" viewBox="0 0 24 24" fill="none" xmlns="http://www.w3.org/2000/svg">
<path d="M12 6.39966C10.9616 6.39966 9.94661 6.70757 9.08326 7.28444C8.2199 7.86132 7.54699 8.68126 7.14963 9.64057C6.75227 10.5999 6.64831 11.6555 6.85088 12.6739C7.05345 13.6923 7.55346 14.6277 8.28769 15.362C9.02192 16.0962 9.95738 16.5962 10.9758 16.7988C11.9942 17.0014 13.0498 16.8974 14.0091 16.5C14.9684 16.1027 15.7883 15.4298 16.3652 14.5664C16.9421 13.703 17.25 12.688 17.25 11.6497C17.2486 10.2577 16.695 8.9232 15.7107 7.93895C14.7265 6.95469 13.3919 6.40111 12 6.39966ZM12 15.1497C11.3078 15.1497 10.6311 14.9444 10.0555 14.5598C9.47993 14.1752 9.03133 13.6286 8.76642 12.989C8.50151 12.3495 8.4322 11.6458 8.56725 10.9668C8.7023 10.2879 9.03564 9.66427 9.52513 9.17478C10.0146 8.6853 10.6383 8.35196 11.3172 8.21691C11.9961 8.08186 12.6999 8.15117 13.3394 8.41608C13.9789 8.68099 14.5256 9.12959 14.9101 9.70516C15.2947 10.2807 15.5 10.9574 15.5 11.6497C15.5 12.5779 15.1313 13.4682 14.4749 14.1245C13.8185 14.7809 12.9283 15.1497 12 15.1497ZM17.25 0.274658H6.75C5.12608 0.276395 3.56917 0.922264 2.42089 2.07055C1.27261 3.21883 0.626737 4.77574 0.625 6.39966V16.8997C0.626737 18.5236 1.27261 20.0805 2.42089 21.2288C3.56917 22.3771 5.12608 23.0229 6.75 23.0247H17.25C18.8739 23.0229 20.4308 22.3771 21.5791 21.2288C22.7274 20.0805 23.3733 18.5236 23.375 16.8997V6.39966C23.3733 4.77574 22.7274 3.21883 21.5791 2.07055C20.4308 0.922264 18.8739 0.276395 17.25 0.274658ZM21.625 16.8997C21.625 18.06 21.1641 19.1728 20.3436 19.9933C19.5231 20.8137 18.4103 21.2747 17.25 21.2747H6.75C5.58968 21.2747 4.47688 20.8137 3.65641 19.9933C2.83594 19.1728 2.375 18.06 2.375 16.8997V6.39966C2.375 5.23934 2.83594 4.12654 3.65641 3.30607C4.47688 2.48559 5.58968 2.02466 6.75 2.02466H17.25C18.4103 2.02466 19.5231 2.48559 20.3436 3.30607C21.1641 4.12654 21.625 5.23934 21.625 6.39966V16.8997ZM19 5.96216C19 6.22175 18.923 6.4755 18.7788 6.69134C18.6346 6.90718 18.4296 7.07541 18.1898 7.17475C17.9499 7.27409 17.686 7.30008 17.4314 7.24944C17.1768 7.1988 16.943 7.07379 16.7594 6.89024C16.5759 6.70668 16.4509 6.47281 16.4002 6.21821C16.3496 5.96361 16.3756 5.69971 16.4749 5.45989C16.5742 5.22006 16.7425 5.01507 16.9583 4.87085C17.1742 4.72663 17.4279 4.64966 17.6875 4.64966C18.0356 4.64966 18.3694 4.78794 18.6156 5.03408C18.8617 5.28022 19 5.61406 19 5.96216Z" fill="#E4F0FB"/>
</svg>
