<svg width="24" height="24" viewBox="0 0 24 24" fill="none" xmlns="http://www.w3.org/2000/svg">
<path d="M21.625 0.274658H2.375C1.91087 0.274658 1.46575 0.459033 1.13756 0.787221C0.809374 1.11541 0.625 1.56053 0.625 2.02466V21.2747C0.625 21.7388 0.809374 22.1839 1.13756 22.5121C1.46575 22.8403 1.91087 23.0247 2.375 23.0247H21.625C22.0891 23.0247 22.5342 22.8403 22.8624 22.5121C23.1906 22.1839 23.375 21.7388 23.375 21.2747V2.02466C23.375 1.56053 23.1906 1.11541 22.8624 0.787221C22.5342 0.459033 22.0891 0.274658 21.625 0.274658ZM21.625 21.2747H2.375V2.02466H21.625V21.2747ZM8.5 9.89966V16.8997C8.5 17.1317 8.40781 17.3543 8.24372 17.5184C8.07962 17.6825 7.85706 17.7747 7.625 17.7747C7.39294 17.7747 7.17038 17.6825 7.00628 17.5184C6.84219 17.3543 6.75 17.1317 6.75 16.8997V9.89966C6.75 9.66759 6.84219 9.44503 7.00628 9.28094C7.17038 9.11685 7.39294 9.02466 7.625 9.02466C7.85706 9.02466 8.07962 9.11685 8.24372 9.28094C8.40781 9.44503 8.5 9.66759 8.5 9.89966ZM18.125 12.9622V16.8997C18.125 17.1317 18.0328 17.3543 17.8687 17.5184C17.7046 17.6825 17.4821 17.7747 17.25 17.7747C17.0179 17.7747 16.7954 17.6825 16.6313 17.5184C16.4672 17.3543 16.375 17.1317 16.375 16.8997V12.9622C16.375 12.382 16.1445 11.8256 15.7343 11.4154C15.3241 11.0051 14.7677 10.7747 14.1875 10.7747C13.6073 10.7747 13.0509 11.0051 12.6407 11.4154C12.2305 11.8256 12 12.382 12 12.9622V16.8997C12 17.1317 11.9078 17.3543 11.7437 17.5184C11.5796 17.6825 11.3571 17.7747 11.125 17.7747C10.8929 17.7747 10.6704 17.6825 10.5063 17.5184C10.3422 17.3543 10.25 17.1317 10.25 16.8997V9.89966C10.2511 9.68533 10.3308 9.47886 10.474 9.3194C10.6172 9.15995 10.814 9.05861 11.027 9.0346C11.24 9.01059 11.4543 9.06558 11.6295 9.18915C11.8046 9.31272 11.9283 9.49627 11.977 9.70497C12.569 9.30343 13.2591 9.0707 13.9733 9.03179C14.6875 8.99288 15.3988 9.14924 16.0309 9.4841C16.6629 9.81896 17.1918 10.3197 17.5607 10.9324C17.9297 11.5452 18.1248 12.2469 18.125 12.9622ZM8.9375 6.83716C8.9375 7.09675 8.86052 7.3505 8.7163 7.56634C8.57208 7.78218 8.3671 7.95041 8.12727 8.04975C7.88744 8.14909 7.62354 8.17508 7.36894 8.12444C7.11434 8.0738 6.88048 7.94879 6.69692 7.76524C6.51337 7.58168 6.38836 7.34781 6.33772 7.09321C6.28708 6.83861 6.31307 6.57471 6.41241 6.33489C6.51175 6.09506 6.67998 5.89007 6.89581 5.74585C7.11165 5.60163 7.36541 5.52466 7.625 5.52466C7.9731 5.52466 8.30694 5.66294 8.55308 5.90908C8.79922 6.15522 8.9375 6.48906 8.9375 6.83716Z" fill="#E4F0FB"/>
</svg>
