<svg width="275" height="41" viewBox="0 0 275 41" fill="none" xmlns="http://www.w3.org/2000/svg">
<path d="M19.28 33C18.5333 33 17.9333 32.6933 17.48 32.08L8.24 19.92L11.88 16.2L21.44 28.84C21.8133 29.3467 22 29.8933 22 30.48C22 31.2267 21.72 31.84 21.16 32.32C20.6 32.7733 19.9733 33 19.28 33ZM19.76 4.79999C20.4 4.79999 20.92 5.06666 21.32 5.59999C21.7467 6.10666 21.96 6.62666 21.96 7.15999C21.96 7.71999 21.72 8.23999 21.24 8.71999L4.48 24.76L4.28 19.04L17.8 5.71999C18.4133 5.10666 19.0667 4.79999 19.76 4.79999ZM2.48 33C1.73333 33 1.13333 32.7733 0.68 32.32C0.226667 31.84 0 31.2533 0 30.56V7.43999C0 6.74666 0.24 6.17333 0.72 5.71999C1.2 5.23999 1.81333 4.99999 2.56 4.99999C3.30667 4.99999 3.89333 5.23999 4.32 5.71999C4.77333 6.17333 5 6.74666 5 7.43999V30.56C5 31.2533 4.77333 31.84 4.32 32.32C3.86667 32.7733 3.25333 33 2.48 33Z" fill="#101614"/>
<path d="M43.3309 11.2C44.0243 11.2 44.5976 11.4267 45.0509 11.88C45.5043 12.3333 45.7309 12.92 45.7309 13.64V30.56C45.7309 31.2533 45.5043 31.84 45.0509 32.32C44.5976 32.7733 44.0243 33 43.3309 33C42.6376 33 42.0643 32.7733 41.6109 32.32C41.1576 31.84 40.9309 31.2533 40.9309 30.56V28.6L41.8109 28.96C41.8109 29.3067 41.6243 29.7333 41.2509 30.24C40.8776 30.72 40.3709 31.2 39.7309 31.68C39.0909 32.16 38.3309 32.5733 37.4509 32.92C36.5976 33.24 35.6643 33.4 34.6509 33.4C32.8109 33.4 31.1443 32.9333 29.6509 32C28.1576 31.04 26.9709 29.7333 26.0909 28.08C25.2376 26.4 24.8109 24.48 24.8109 22.32C24.8109 20.1333 25.2376 18.2133 26.0909 16.56C26.9709 14.88 28.1443 13.5733 29.6109 12.64C31.0776 11.68 32.7043 11.2 34.4909 11.2C35.6376 11.2 36.6909 11.3733 37.6509 11.72C38.6109 12.0667 39.4376 12.5067 40.1309 13.04C40.8509 13.5733 41.3976 14.12 41.7709 14.68C42.1709 15.2133 42.3709 15.6667 42.3709 16.04L40.9309 16.56V13.64C40.9309 12.9467 41.1576 12.3733 41.6109 11.92C42.0643 11.44 42.6376 11.2 43.3309 11.2ZM35.2509 29C36.4243 29 37.4509 28.7067 38.3309 28.12C39.2109 27.5333 39.8909 26.7333 40.3709 25.72C40.8776 24.7067 41.1309 23.5733 41.1309 22.32C41.1309 21.04 40.8776 19.8933 40.3709 18.88C39.8909 17.8667 39.2109 17.0667 38.3309 16.48C37.4509 15.8933 36.4243 15.6 35.2509 15.6C34.1043 15.6 33.0909 15.8933 32.2109 16.48C31.3309 17.0667 30.6376 17.8667 30.1309 18.88C29.6509 19.8933 29.4109 21.04 29.4109 22.32C29.4109 23.5733 29.6509 24.7067 30.1309 25.72C30.6376 26.7333 31.3309 27.5333 32.2109 28.12C33.0909 28.7067 34.1043 29 35.2509 29Z" fill="#101614"/>
<path d="M55.4481 30.56C55.4481 31.2533 55.2215 31.84 54.7681 32.32C54.3148 32.7733 53.7415 33 53.0481 33C52.3548 33 51.7815 32.7733 51.3281 32.32C50.8748 31.84 50.6481 31.2533 50.6481 30.56V14.04C50.6481 13.3467 50.8748 12.7733 51.3281 12.32C51.7815 11.84 52.3548 11.6 53.0481 11.6C53.7415 11.6 54.3148 11.84 54.7681 12.32C55.2215 12.7733 55.4481 13.3467 55.4481 14.04V30.56ZM53.0081 8.99999C52.1015 8.99999 51.4615 8.85333 51.0881 8.55999C50.7148 8.26666 50.5281 7.74666 50.5281 6.99999V6.23999C50.5281 5.46666 50.7281 4.94666 51.1281 4.67999C51.5548 4.38666 52.1948 4.23999 53.0481 4.23999C53.9815 4.23999 54.6348 4.38666 55.0081 4.67999C55.3815 4.97333 55.5681 5.49333 55.5681 6.23999V6.99999C55.5681 7.77333 55.3681 8.30666 54.9681 8.59999C54.5681 8.86666 53.9148 8.99999 53.0081 8.99999Z" fill="#101614"/>
<path d="M77.9013 11.6C78.5946 11.6 79.1679 11.8267 79.6212 12.28C80.0746 12.7333 80.3013 13.32 80.3013 14.04V38.56C80.3013 39.2533 80.0746 39.8267 79.6212 40.28C79.1679 40.76 78.5946 41 77.9013 41C77.2079 41 76.6346 40.76 76.1813 40.28C75.7279 39.8267 75.5013 39.2533 75.5013 38.56V28.6L76.3812 28.96C76.3812 29.3067 76.1946 29.7333 75.8213 30.24C75.4479 30.72 74.9413 31.2 74.3013 31.68C73.6613 32.16 72.9012 32.5733 72.0212 32.92C71.1679 33.24 70.2346 33.4 69.2213 33.4C67.3813 33.4 65.7146 32.9333 64.2213 32C62.7279 31.04 61.5413 29.7333 60.6613 28.08C59.8079 26.4 59.3812 24.48 59.3812 22.32C59.3812 20.1333 59.8079 18.2133 60.6613 16.56C61.5413 14.88 62.7146 13.5733 64.1813 12.64C65.6479 11.68 67.2746 11.2 69.0612 11.2C70.2079 11.2 71.2613 11.3733 72.2213 11.72C73.1813 12.0667 74.0079 12.5067 74.7012 13.04C75.4212 13.5733 75.9679 14.12 76.3412 14.68C76.7412 15.2133 76.9413 15.6667 76.9413 16.04L75.5013 16.56V14.04C75.5013 13.3467 75.7279 12.7733 76.1813 12.32C76.6346 11.84 77.2079 11.6 77.9013 11.6ZM69.8213 29C70.9946 29 72.0213 28.7067 72.9013 28.12C73.7812 27.5333 74.4613 26.7333 74.9413 25.72C75.4479 24.7067 75.7012 23.5733 75.7012 22.32C75.7012 21.04 75.4479 19.8933 74.9413 18.88C74.4613 17.8667 73.7812 17.0667 72.9013 16.48C72.0213 15.8933 70.9946 15.6 69.8213 15.6C68.6746 15.6 67.6612 15.8933 66.7812 16.48C65.9013 17.0667 65.2079 17.8667 64.7012 18.88C64.2212 19.8933 63.9813 21.04 63.9813 22.32C63.9813 23.5733 64.2212 24.7067 64.7012 25.72C65.2079 26.7333 65.9013 27.5333 66.7812 28.12C67.6612 28.7067 68.6746 29 69.8213 29Z" fill="#101614"/>
<path d="M106.589 33C105.843 33 105.229 32.7733 104.749 32.32C104.269 31.84 104.029 31.2533 104.029 30.56V7.35999H109.229V30.56C109.229 31.2533 108.976 31.84 108.469 32.32C107.989 32.7733 107.363 33 106.589 33ZM97.7494 9.59999C97.056 9.59999 96.4694 9.38666 95.9894 8.95999C95.536 8.53333 95.3094 7.97333 95.3094 7.27999C95.3094 6.58666 95.536 6.03999 95.9894 5.63999C96.4694 5.21333 97.056 4.99999 97.7494 4.99999H115.509C116.203 4.99999 116.776 5.21333 117.229 5.63999C117.709 6.06666 117.949 6.62666 117.949 7.31999C117.949 8.01333 117.709 8.57332 117.229 8.99999C116.776 9.39999 116.203 9.59999 115.509 9.59999H97.7494Z" fill="#101614"/>
<path d="M119.884 32.96C119.111 32.96 118.511 32.76 118.084 32.36C117.684 31.9333 117.484 31.3333 117.484 30.56V29.88C117.484 29.1067 117.684 28.52 118.084 28.12C118.511 27.6933 119.111 27.48 119.884 27.48H120.404C121.177 27.48 121.764 27.6933 122.164 28.12C122.591 28.52 122.804 29.1067 122.804 29.88V30.56C122.804 31.3333 122.591 31.9333 122.164 32.36C121.764 32.76 121.177 32.96 120.404 32.96H119.884Z" fill="#101614"/>
<path d="M148.336 33.4C146.469 33.4 144.789 33.1733 143.296 32.72C141.803 32.24 140.376 31.4133 139.016 30.24C138.669 29.9467 138.403 29.6133 138.216 29.24C138.029 28.8667 137.936 28.4933 137.936 28.12C137.936 27.5067 138.149 26.9733 138.576 26.52C139.029 26.04 139.589 25.8 140.256 25.8C140.763 25.8 141.216 25.96 141.616 26.28C142.629 27.1067 143.629 27.7333 144.616 28.16C145.629 28.5867 146.869 28.8 148.336 28.8C149.323 28.8 150.229 28.6533 151.056 28.36C151.883 28.04 152.549 27.6267 153.056 27.12C153.563 26.5867 153.816 25.9867 153.816 25.32C153.816 24.52 153.576 23.84 153.096 23.28C152.616 22.72 151.883 22.2533 150.896 21.88C149.909 21.48 148.656 21.1733 147.136 20.96C145.696 20.7467 144.429 20.4267 143.336 20C142.243 19.5467 141.323 18.9867 140.576 18.32C139.856 17.6267 139.309 16.8267 138.936 15.92C138.563 14.9867 138.376 13.9467 138.376 12.8C138.376 11.0667 138.816 9.58666 139.696 8.35999C140.603 7.13332 141.816 6.19999 143.336 5.55999C144.856 4.91999 146.536 4.59999 148.376 4.59999C150.109 4.59999 151.709 4.86666 153.176 5.39999C154.669 5.90666 155.883 6.55999 156.816 7.35999C157.589 7.97333 157.976 8.67999 157.976 9.47999C157.976 10.0667 157.749 10.6 157.296 11.08C156.843 11.56 156.309 11.8 155.696 11.8C155.296 11.8 154.936 11.68 154.616 11.44C154.189 11.0667 153.616 10.72 152.896 10.4C152.176 10.0533 151.416 9.77333 150.616 9.55999C149.816 9.31999 149.069 9.19999 148.376 9.19999C147.229 9.19999 146.256 9.34666 145.456 9.63999C144.683 9.93333 144.096 10.3333 143.696 10.84C143.296 11.3467 143.096 11.9333 143.096 12.6C143.096 13.4 143.323 14.0667 143.776 14.6C144.256 15.1067 144.936 15.52 145.816 15.84C146.696 16.1333 147.749 16.4 148.976 16.64C150.576 16.9333 151.976 17.28 153.176 17.68C154.403 18.08 155.416 18.6 156.216 19.24C157.016 19.8533 157.616 20.64 158.016 21.6C158.416 22.5333 158.616 23.68 158.616 25.04C158.616 26.7733 158.136 28.2667 157.176 29.52C156.216 30.7733 154.949 31.7333 153.376 32.4C151.829 33.0667 150.149 33.4 148.336 33.4Z" fill="#101614"/>
<path d="M183.563 22.32C183.563 24.5067 183.07 26.44 182.083 28.12C181.123 29.7733 179.816 31.0667 178.163 32C176.536 32.9333 174.71 33.4 172.683 33.4C170.656 33.4 168.816 32.9333 167.163 32C165.536 31.0667 164.23 29.7733 163.243 28.12C162.283 26.44 161.803 24.5067 161.803 22.32C161.803 20.1333 162.283 18.2133 163.243 16.56C164.23 14.88 165.536 13.5733 167.163 12.64C168.816 11.68 170.656 11.2 172.683 11.2C174.71 11.2 176.536 11.68 178.163 12.64C179.816 13.5733 181.123 14.88 182.083 16.56C183.07 18.2133 183.563 20.1333 183.563 22.32ZM178.763 22.32C178.763 20.96 178.483 19.7867 177.923 18.8C177.39 17.7867 176.656 17 175.723 16.44C174.816 15.88 173.803 15.6 172.683 15.6C171.563 15.6 170.536 15.88 169.603 16.44C168.696 17 167.963 17.7867 167.403 18.8C166.87 19.7867 166.603 20.96 166.603 22.32C166.603 23.6533 166.87 24.8267 167.403 25.84C167.963 26.8267 168.696 27.6 169.603 28.16C170.536 28.72 171.563 29 172.683 29C173.803 29 174.816 28.72 175.723 28.16C176.656 27.6 177.39 26.8267 177.923 25.84C178.483 24.8267 178.763 23.6533 178.763 22.32Z" fill="#101614"/>
<path d="M203.644 11.6C204.337 11.6 204.911 11.84 205.364 12.32C205.817 12.7733 206.044 13.3467 206.044 14.04V24.2C206.044 27.0267 205.257 29.2667 203.684 30.92C202.111 32.5733 199.844 33.4 196.884 33.4C193.924 33.4 191.657 32.5733 190.084 30.92C188.537 29.2667 187.764 27.0267 187.764 24.2V14.04C187.764 13.3467 187.991 12.7733 188.444 12.32C188.897 11.84 189.471 11.6 190.164 11.6C190.857 11.6 191.431 11.84 191.884 12.32C192.337 12.7733 192.564 13.3467 192.564 14.04V24.2C192.564 25.8267 192.924 27.04 193.644 27.84C194.364 28.6133 195.444 29 196.884 29C198.351 29 199.444 28.6133 200.164 27.84C200.884 27.04 201.244 25.8267 201.244 24.2V14.04C201.244 13.3467 201.471 12.7733 201.924 12.32C202.377 11.84 202.951 11.6 203.644 11.6Z" fill="#101614"/>
<path d="M224.881 28.6C225.521 28.6 226.054 28.8133 226.481 29.24C226.907 29.64 227.121 30.16 227.121 30.8C227.121 31.4133 226.907 31.9333 226.481 32.36C226.054 32.7867 225.521 33 224.881 33H212.001C211.334 33 210.801 32.76 210.401 32.28C210.001 31.8 209.814 31.32 209.841 30.84C209.867 30.44 209.921 30.0933 210.001 29.8C210.081 29.48 210.281 29.12 210.601 28.72L220.561 15.84L220.481 16.4H212.361C211.721 16.4 211.187 16.1867 210.761 15.76C210.334 15.3333 210.121 14.8 210.121 14.16C210.121 13.5467 210.334 13.04 210.761 12.64C211.187 12.2133 211.721 12 212.361 12H224.681C225.294 12 225.814 12.2267 226.241 12.68C226.667 13.1333 226.854 13.7067 226.801 14.4C226.774 14.6667 226.721 14.9333 226.641 15.2C226.587 15.4667 226.414 15.7867 226.121 16.16L216.321 28.84V28.6H224.881Z" fill="#101614"/>
<path d="M248.136 11.2C248.829 11.2 249.402 11.4267 249.856 11.88C250.309 12.3333 250.536 12.92 250.536 13.64V30.56C250.536 31.2533 250.309 31.84 249.856 32.32C249.402 32.7733 248.829 33 248.136 33C247.442 33 246.869 32.7733 246.416 32.32C245.962 31.84 245.736 31.2533 245.736 30.56V28.6L246.616 28.96C246.616 29.3067 246.429 29.7333 246.056 30.24C245.682 30.72 245.176 31.2 244.536 31.68C243.896 32.16 243.136 32.5733 242.256 32.92C241.402 33.24 240.469 33.4 239.456 33.4C237.616 33.4 235.949 32.9333 234.456 32C232.962 31.04 231.776 29.7333 230.896 28.08C230.042 26.4 229.616 24.48 229.616 22.32C229.616 20.1333 230.042 18.2133 230.896 16.56C231.776 14.88 232.949 13.5733 234.416 12.64C235.882 11.68 237.509 11.2 239.296 11.2C240.442 11.2 241.496 11.3733 242.456 11.72C243.416 12.0667 244.242 12.5067 244.936 13.04C245.656 13.5733 246.202 14.12 246.576 14.68C246.976 15.2133 247.176 15.6667 247.176 16.04L245.736 16.56V13.64C245.736 12.9467 245.962 12.3733 246.416 11.92C246.869 11.44 247.442 11.2 248.136 11.2ZM240.056 29C241.229 29 242.256 28.7067 243.136 28.12C244.016 27.5333 244.696 26.7333 245.176 25.72C245.682 24.7067 245.936 23.5733 245.936 22.32C245.936 21.04 245.682 19.8933 245.176 18.88C244.696 17.8667 244.016 17.0667 243.136 16.48C242.256 15.8933 241.229 15.6 240.056 15.6C238.909 15.6 237.896 15.8933 237.016 16.48C236.136 17.0667 235.442 17.8667 234.936 18.88C234.456 19.8933 234.216 21.04 234.216 22.32C234.216 23.5733 234.456 24.7067 234.936 25.72C235.442 26.7333 236.136 27.5333 237.016 28.12C237.896 28.7067 238.909 29 240.056 29Z" fill="#101614"/>
<path d="M256.493 38.36C256.039 38.36 255.573 38.1733 255.093 37.8C254.613 37.4267 254.373 36.9467 254.373 36.36C254.373 36.04 254.453 35.72 254.613 35.4L270.853 2.15999C271.039 1.78666 271.293 1.49333 271.613 1.27999C271.933 1.06666 272.266 0.959991 272.613 0.959991C273.066 0.959991 273.519 1.14666 273.973 1.51999C274.453 1.86666 274.693 2.34666 274.693 2.95999C274.693 3.27999 274.613 3.59999 274.453 3.91999L258.253 37.16C258.066 37.5333 257.813 37.8267 257.493 38.04C257.199 38.2533 256.866 38.36 256.493 38.36Z" fill="#101614"/>
</svg>
