<svg width="64" height="64" viewBox="0 0 64 64" fill="none" xmlns="http://www.w3.org/2000/svg">
<rect width="64" height="64" rx="32" fill="#A259FF"/>
<path d="M38.029 25.9709C39.669 25.9709 41.2418 25.3194 42.4014 24.1598C43.5611 23.0001 44.2126 21.4273 44.2126 19.7873C44.2126 18.1473 43.5611 16.5745 42.4014 15.4149C41.2418 14.2552 39.669 13.6038 38.029 13.6038H25.6618C24.0219 13.6038 22.449 14.2552 21.2894 15.4149C20.1298 16.5745 19.4783 18.1473 19.4783 19.7873C19.4783 21.4273 20.1298 23.0001 21.2894 24.1598C22.449 25.3194 24.0219 25.9709 25.6618 25.9709C24.0219 25.9709 22.449 26.6224 21.2894 27.782C20.1298 28.9417 19.4783 30.5145 19.4783 32.1545C19.4783 33.7945 20.1298 35.3673 21.2894 36.5269C22.449 37.6866 24.0219 38.3381 25.6618 38.3381C24.4389 38.3381 23.2433 38.7007 22.2264 39.3802C21.2096 40.0596 20.417 41.0254 19.949 42.1553C19.481 43.2852 19.3585 44.5285 19.5971 45.728C19.8357 46.9275 20.4246 48.0293 21.2894 48.8941C22.1542 49.7589 23.256 50.3478 24.4555 50.5864C25.655 50.825 26.8983 50.7025 28.0282 50.2345C29.1581 49.7665 30.1238 48.9739 30.8033 47.957C31.4828 46.9402 31.8454 45.7446 31.8454 44.5216V25.9709H38.029Z" fill="#FDFFFF"/>
<path d="M38.029 38.3381C41.4441 38.3381 44.2125 35.5696 44.2125 32.1545C44.2125 28.7394 41.4441 25.9709 38.029 25.9709C34.6139 25.9709 31.8454 28.7394 31.8454 32.1545C31.8454 35.5696 34.6139 38.3381 38.029 38.3381Z" fill="#FDFFFF"/>
</svg>
